{
  "accessors": [
    {
      "bufferView": 1,
      "componentType": 5126,
      "count": 60,
      "max": [
        0.89442002773284912,
        0.85063999891281128,
        2.0255899429321289
      ],
      "min": [
        -0.89442002773284912,
        -0.85063999891281128,
        -2.0255899429321289
      ],
      "type": "VEC3"
    },
    {
      "bufferView": 1,
      "byteOffset": 720,
      "componentType": 5126,
      "count": 60,
      "max": [
        0.98224562406539917,
        0.93417000770568848,
        0.41674110293388367
      ],
      "min": [
        -0.98224562406539917,
        -0.93417000770568848,
        -0.41674110293388367
      ],
      "type": "VEC3"
    },
    {
      "bufferView": 0,
      "componentType": 5125,
      "count": 60,
      "max": [
        59
      ],
      "min": [
        0
      ],
      "type": "SCALAR"
    }
  ],
  "asset": {
    "extras": {
      "author": "Jiří Kuba (https://sketchfab.com/kuba.jirka)",
      "license": "CC-BY-4.0 (http://creativecommons.org/licenses/by/4.0/)",
      "source": "https://sketchfab.com/models/7409591671114fa18523b0d23850afcd",
      "title": "Crystal"
    },
    "generator": "Sketchfab-3.18.6",
    "version": "2.0"
  },
  "bufferViews": [
    {
      "buffer": 0,
      "byteLength": 240,
      "byteOffset": 0,
      "name": "floatBufferViews",
      "target": 34963
    },
    {
      "buffer": 0,
      "byteLength": 1440,
      "byteOffset": 240,
      "byteStride": 12,
      "name": "floatBufferViews",
      "target": 34962
    }
  ],
  "buffers": [
    {
      "byteLength": 1680,
      "uri": "scene.bin"
    }
  ],
  "materials": [
    {
      "doubleSided": true,
      "emissiveFactor": [
        0,
        0,
        0
      ],
      "name": "CrystalMaterial",
      "pbrMetallicRoughness": {
        "baseColorFactor": [
          0.020362049300000001,
          0.7832226753,
          1,
          1
        ],
        "metallicFactor": 1,
        "roughnessFactor": 0.10194359760000005
      }
    }
  ],
  "meshes": [
    {
      "name": "Crystal_0",
      "primitives": [
        {
          "attributes": {
            "NORMAL": 1,
            "POSITION": 0
          },
          "indices": 2,
          "material": 0,
          "mode": 4
        }
      ]
    }
  ],
  "nodes": [
    {
      "children": [
        1
      ],
      "name": "RootNode (gltf orientation matrix)",
      "rotation": [
        -0.70710678118654746,
        -0,
        -0,
        0.70710678118654757
      ]
    },
    {
      "children": [
        2
      ],
      "name": "RootNode (model correction matrix)"
    },
    {
      "children": [
        3
      ],
      "name": "Root"
    },
    {
      "children": [
        4
      ],
      "name": "Crystal"
    },
    {
      "mesh": 0,
      "name": "Crystal_0"
    }
  ],
  "scene": 0,
  "scenes": [
    {
      "name": "OSG_Scene",
      "nodes": [
        0
      ]
    }
  ]
}

